<?xml version="1.0"?>
<svg xmlns="http://www.w3.org/2000/svg" xmlns:xlink="http://www.w3.org/1999/xlink" version="1.1" id="Capa_1" x="0px" y="0px" width="512px" height="512px" viewBox="0 0 80.538 80.538" style="enable-background:new 0 0 80.538 80.538;" xml:space="preserve" class=""><g transform="matrix(-0.877521 0 0 0.877521 75.6059 4.9321)"><g>
	<g id="Grid_1_">
		<g>
			<path d="M0,21.965h21.965V0H0V21.965z M29.287,21.965h21.965V0H29.287V21.965z M58.573,0v21.965h21.965V0H58.573z M0,51.251     h21.965V29.287H0V51.251z M29.287,51.251h21.965V29.287H29.287V51.251z M58.573,51.251h21.965V29.287H58.573V51.251z M0,80.538     h21.965V58.573H0V80.538z M29.287,80.538h21.965V58.573H29.287V80.538z M58.573,80.538h21.965V58.573H58.573V80.538z" data-original="#000000" class="active-path" data-old_color="#c1c1c1" fill="#c1c1c1"/>
		</g>
	</g>
</g></g> </svg>
